<?xml version="1.0" encoding="UTF-8" standalone="no"?><!DOCTYPE svg PUBLIC "-//W3C//DTD SVG 1.1//EN" "http://www.w3.org/Graphics/SVG/1.1/DTD/svg11.dtd"><svg width="100%" height="100%" viewBox="0 0 512 512" version="1.1" xmlns="http://www.w3.org/2000/svg" xmlns:xlink="http://www.w3.org/1999/xlink" xml:space="preserve" xmlns:serif="http://www.serif.com/" style="fill-rule:evenodd;clip-rule:evenodd;stroke-linejoin:round;stroke-miterlimit:2;"><g><path d="M434.655,103.686c-1.356,-4.021 -4.255,-7.338 -8.058,-9.221c-0.985,-0.489 -20.03,-9.756 -46.832,-11.877c0.637,-4.201 1.101,-8.425 1.384,-12.656c1.359,-20.109 -1.217,-39.975 -7.655,-59.046c-2.826,-8.372 -11.907,-12.865 -20.275,-10.042c-23.352,7.882 -44.136,21.108 -61.027,38.653c-17.715,-18.01 -35.44,-29.001 -36.362,-29.567c-3.831,-2.353 -8.475,-2.984 -12.794,-1.742c-4.32,1.242 -7.919,4.245 -9.915,8.272l-42.62,86.01c-13.283,26.817 -15.329,57.192 -5.764,85.52c4.619,13.708 11.711,26.199 21.083,37.135c0.161,0.197 0.327,0.389 0.499,0.578c2.899,3.337 6.004,6.484 9.275,9.448c-10.183,13.996 -22.681,32.98 -32.97,56.656c-7.488,-8.704 -17.709,-14.791 -29.345,-17.089c-38.397,-7.583 -60.145,-5.157 -70.539,7.875c-10.374,13.038 -7.885,34.783 8.071,70.503c7.313,16.38 22.326,27.718 40.159,30.329c2.647,0.388 5.293,0.578 7.924,0.578c8.215,0 16.265,-1.87 23.635,-5.385c-7.377,83.608 -14.486,113.227 -14.56,113.53c-2.121,8.562 3.089,17.229 11.649,19.369c1.302,0.326 2.607,0.481 3.892,0.481c7.169,0 13.693,-4.854 15.511,-12.124c0.339,-1.358 8.406,-34.364 16.422,-130.55c4.396,-52.745 29.368,-92.504 46.715,-116.277c5.89,2.844 12.013,5.18 18.21,6.932c10.137,2.877 20.389,4.259 30.511,4.258c41.661,-0.002 81.051,-23.411 100.333,-62.316l42.619,-86.019c1.885,-3.8 2.181,-8.195 0.824,-12.216Zm-87.133,-65.855c1.813,9.829 2.385,19.85 1.702,29.953c-0.365,5.453 -1.108,10.889 -2.212,16.251c-7.565,1.312 -14.926,3.296 -22.042,5.976c-2.786,-8.511 -6.932,-17.013 -12.408,-25.461c9.945,-11.021 21.758,-20.05 34.96,-26.719Zm-128.347,78.845l34.249,-69.116c7.94,6.354 17.897,15.352 26.418,26.202c8.572,10.924 14.013,21.588 16.241,31.813c-29.883,21.2 -58.04,54.916 -77.416,81.113c-1.372,-2.884 -2.576,-5.861 -3.608,-8.926c-6.833,-20.237 -5.371,-41.933 4.116,-61.086Zm-61.315,225.695c-0.032,0.04 -0.064,0.081 -0.097,0.122c-0.219,0.278 -0.438,0.545 -0.679,0.824c-5.55,6.447 -13.578,9.604 -21.478,8.448c-7.035,-1.03 -12.713,-5.299 -15.577,-11.715c-9.188,-20.57 -11.37,-32.131 -11.506,-36.923c4.699,-0.933 16.452,-1.38 38.557,2.985c6.895,1.361 12.323,5.943 14.895,12.569c2.89,7.441 1.601,15.973 -3.393,22.75c-0.234,0.315 -0.474,0.631 -0.722,0.94Zm204.68,-154.655c-17.12,34.545 -56.421,51.987 -93.449,41.478c-4.684,-1.324 -9.31,-3.11 -13.745,-5.307c-2.998,-1.487 -5.933,-3.176 -8.727,-5.024c-2.659,-1.758 -5.207,-3.671 -7.629,-5.728c18.533,-25.914 48.213,-63.112 78.545,-83.489c1.432,-0.961 2.706,-1.776 3.896,-2.492c0.014,-0.008 0.028,-0.017 0.042,-0.025c12.068,-7.27 25.386,-11.529 39.596,-12.662c0.056,-0.004 0.112,-0.008 0.167,-0.013c14.029,-1.104 26.691,1.005 35.909,3.421l-34.605,69.841Z" style="fill:#fff;fill-rule:nonzero;"/></g></svg>