<?xml version="1.0"?>
<svg xmlns="http://www.w3.org/2000/svg" xmlns:xlink="http://www.w3.org/1999/xlink" xmlns:svgjs="http://svgjs.com/svgjs" version="1.1" width="512" height="512" x="0" y="0" viewBox="0 0 512 512" style="enable-background:new 0 0 512 512" xml:space="preserve" class=""><g><g xmlns="http://www.w3.org/2000/svg"><path d="m429.232 305.379v-11.086h-30c0 15.209-12.374 27.583-27.583 27.583-7.368 0-14.295-2.869-19.505-8.079-10.755-10.755-10.755-28.254 0-39.01 5.21-5.209 12.137-8.079 19.505-8.079s14.295 2.87 19.505 8.079l21.213-21.213c-10.755-10.755-10.755-28.254 0-39.009 5.21-5.209 12.137-8.079 19.505-8.079 7.367 0 14.294 2.87 19.504 8.079l21.213-21.213-7.839-7.839c-15.633-15.633-24.242-36.417-24.242-58.525s8.609-42.893 24.242-58.525l-21.213-21.213c-15.633 15.632-36.418 24.242-58.525 24.242s-42.893-8.61-58.525-24.242l-7.838-7.839-21.215 21.213h.001c5.21 5.21 8.079 12.137 8.079 19.505s-2.869 14.295-8.079 19.504c-10.755 10.755-28.255 10.754-39.01 0l-21.213 21.213c5.209 5.21 8.079 12.137 8.079 19.504 0 7.368-2.87 14.295-8.079 19.504-10.756 10.756-28.255 10.754-39.01 0-5.209-5.21-8.079-12.137-8.079-19.504 0-15.21 12.374-27.584 27.583-27.584v-30h-11.086c-45.638 0-82.767-37.129-82.767-82.767h-30c0 45.638-37.129 82.767-82.767 82.767h-11.086v30c15.209 0 27.583 12.374 27.583 27.584 0 15.209-12.374 27.583-27.583 27.583v30c15.209 0 27.583 12.374 27.583 27.583 0 15.21-12.374 27.584-27.583 27.584v30c15.209 0 27.583 12.374 27.583 27.583v16.021c0 43.239 33.945 78.688 76.584 81.125 2.437 42.639 37.886 76.584 81.125 76.584h16.021c15.209 0 27.583 12.374 27.583 27.583h30c0-15.209 12.374-27.583 27.584-27.583s27.584 12.374 27.584 27.583h30c0-15.209 12.374-27.583 27.584-27.583 15.209 0 27.583 12.374 27.583 27.583h30v-11.086c0-45.638 37.129-82.767 82.768-82.767v-30c-45.638.003-82.767-37.126-82.767-82.764zm-170.807-124.311c10.876-10.876 16.866-25.336 16.866-40.718 0-.913-.021-1.822-.063-2.729.899.042 1.802.063 2.701.063 14.745-.001 29.494-5.614 40.719-16.839 8.799-8.799 14.149-19.761 16.052-31.19 24.826 12.352 53.289 14.981 79.671 7.913-2.543 9.475-3.862 19.345-3.862 29.419 0 17.745 4.07 34.862 11.771 50.289-11.733 1.957-22.544 7.496-31.124 16.076-11.911 11.911-17.503 27.787-16.776 43.419-.906-.042-1.815-.063-2.729-.063-15.381 0-29.842 5.99-40.718 16.866-11.226 11.226-16.839 25.972-16.839 40.718h-.027c0 .92-.047 1.828-.136 2.725-3.334-.144-6.676.008-9.989.438.296-2.833.456-5.696.456-8.583 0-16.619-4.97-32.467-14.181-45.876l57.074-57.074-21.213-21.213-57.075 57.074c-13.409-9.211-29.257-14.181-45.876-14.181-2.888 0-5.751.16-8.584.456.431-3.313.582-6.655.438-9.989.897-.088 1.806-.136 2.725-.136v-.027c14.745 0 29.494-5.613 40.719-16.838zm-35.298 159.075c-13.695 0-26.57-5.333-36.253-15.017-9.684-9.683-15.017-22.558-15.017-36.253s5.333-26.57 15.017-36.253 22.559-15.017 36.253-15.017 26.569 5.333 36.253 15.017 15.017 22.558 15.017 36.253-5.333 26.569-15.017 36.253c-9.684 9.684-22.559 15.017-36.253 15.017zm-184.404-72.041c11.581-10.541 18.86-25.728 18.86-42.584s-7.279-32.043-18.86-42.583c11.582-10.54 18.86-25.727 18.86-42.583 0-12.444-3.968-23.979-10.704-33.405 26.315-8.83 48.32-27.125 61.974-50.815 13.654 23.689 35.659 41.985 61.974 50.815-6.736 9.427-10.704 20.961-10.704 33.405 0 15.381 5.99 29.841 16.866 40.717.65.65 1.26 1.327 1.831 2.023-11.483 10.534-18.697 25.652-18.697 42.426 0 3.655.349 7.267 1.024 10.813-5.087 5.982-9.227 12.585-12.35 19.632-7.744-4.365-16.182-7.434-24.944-9.092v-80.758h-30v80.735c-19.334 3.624-36.273 14.105-48.187 28.827-2.092-2.722-4.407-5.265-6.943-7.573zm18.86 58.605c0-28.271 23-51.27 51.27-51.27 12.297 0 23.819 4.254 33.037 12.067-.008.457-.033.911-.033 1.369 0 18.186 5.953 35.448 16.904 49.599-5.378 23.073-25.869 39.505-49.907 39.505-28.271 0-51.271-22.999-51.271-51.27zm76.462 77.315c21.884-7.077 39.809-23.182 49.138-44.359 12.054 6.826 25.715 10.48 39.944 10.48.458 0 .912-.026 1.368-.033 7.814 9.218 12.068 20.74 12.068 33.037 0 28.271-23 51.27-51.27 51.27-27.977 0-50.777-22.528-51.248-50.395zm271.009 61.099c-9.427-6.737-20.961-10.704-33.404-10.704-16.856 0-32.044 7.279-42.584 18.861-10.54-11.582-25.728-18.861-42.584-18.861s-32.043 7.279-42.583 18.86c-2.308-2.536-4.851-4.851-7.573-6.944 14.722-11.913 25.203-28.853 28.827-48.187h80.735v-30h-80.759c-1.657-8.762-4.727-17.199-9.092-24.943 7.047-3.123 13.651-7.263 19.633-12.35 3.545.675 7.157 1.024 10.813 1.024 16.775 0 31.893-7.214 42.427-18.697.697.572 1.373 1.181 2.023 1.831 10.876 10.876 25.336 16.866 40.718 16.866 12.443 0 23.978-3.968 33.404-10.704 8.83 26.316 27.125 48.321 50.815 61.974-23.691 13.653-41.986 35.658-50.816 61.974z" fill="#ffffff" data-original="#000000" style="" class=""/></g></g></svg>
